<?xml version="1.0" standalone="no"?>
<!DOCTYPE svg PUBLIC "-//W3C//DTD SVG 20010904//EN"
 "http://www.w3.org/TR/2001/REC-SVG-20010904/DTD/svg10.dtd">
<svg version="1.0" xmlns="http://www.w3.org/2000/svg"
 width="75.000000pt" height="50.000000pt" viewBox="0 0 75.000000 50.000000"
 preserveAspectRatio="xMidYMid meet">
<metadata>
Created by potrace 1.16, written by Peter Selinger 2001-2019
</metadata>
<g transform="translate(0.000000,50.000000) scale(0.007232,-0.004822)"
fill="#ffffff" stroke="none">
<path d="M4346 8960 c-67 -12 -182 -70 -240 -121 -59 -52 -116 -136 -146 -214
-31 -79 -34 -263 -7 -338 45 -124 96 -189 222 -281 114 -84 177 -144 245 -233
81 -107 177 -323 210 -473 7 -30 16 -68 21 -84 22 -72 17 -78 -86 -109 -169
-51 -386 -159 -576 -288 -31 -21 -62 -40 -69 -41 -14 -3 -39 86 -40 141 0 39
-16 136 -33 196 -37 136 -141 258 -277 323 -71 34 -99 42 -170 47 -102 8 -192
-5 -266 -39 -130 -60 -245 -186 -282 -311 -39 -133 -41 -182 -11 -293 41 -155
139 -273 281 -340 82 -39 124 -49 307 -74 54 -7 95 -17 98 -24 3 -7 -15 -46
-40 -86 -24 -40 -63 -109 -87 -153 -24 -44 -55 -100 -69 -125 -15 -25 -33 -58
-41 -73 -27 -53 -104 -115 -166 -133 -54 -15 -64 -15 -134 -1 -41 9 -91 20
-110 26 -19 5 -69 18 -110 29 -284 74 -461 194 -644 434 -144 189 -241 243
-436 243 -268 0 -448 -139 -519 -401 -6 -23 -11 -82 -11 -132 0 -147 47 -250
165 -360 106 -99 197 -141 326 -149 81 -6 157 13 294 72 203 87 326 110 475
89 149 -20 204 -31 373 -73 189 -48 239 -70 274 -123 30 -44 53 -123 47 -159
-2 -13 -9 -105 -15 -204 -6 -99 -14 -209 -18 -245 -6 -62 -7 -65 -31 -62 -14
2 -29 7 -35 11 -5 4 -48 22 -95 40 -47 18 -94 37 -105 41 -19 8 -56 15 -135
25 -60 7 -172 -16 -247 -52 -127 -60 -216 -158 -268 -296 -34 -92 -36 -250 -4
-341 54 -151 168 -266 324 -326 49 -19 81 -23 170 -24 110 -1 125 2 224 46 81
36 145 94 245 221 54 70 104 127 111 127 14 0 39 -36 135 -195 37 -60 108
-175 158 -254 73 -115 89 -147 80 -160 -12 -18 -153 -125 -209 -159 -97 -58
-256 -107 -434 -132 -128 -18 -176 -31 -239 -62 -112 -56 -197 -159 -247 -298
-19 -53 -23 -86 -23 -180 0 -111 1 -117 35 -190 149 -312 505 -412 783 -221
132 91 224 266 226 426 0 63 38 227 67 295 53 122 110 214 188 301 59 66 59
66 112 22 209 -170 397 -275 668 -374 44 -16 87 -29 96 -29 8 0 23 -6 33 -13
18 -13 18 -16 2 -78 -24 -90 -56 -208 -65 -244 -52 -192 -197 -392 -388 -537
-54 -40 -111 -86 -126 -103 -118 -122 -173 -316 -133 -467 57 -218 202 -360
413 -404 85 -18 111 -18 198 1 170 35 329 163 390 315 54 136 50 264 -12 400
-93 203 -135 417 -114 582 31 234 84 438 121 458 10 5 61 10 114 10 52 0 150
4 218 9 68 6 189 12 271 15 171 7 162 16 118 -113 -44 -132 -54 -185 -49 -269
6 -90 28 -157 74 -229 71 -111 165 -190 277 -231 79 -30 222 -30 319 -1 169
50 307 182 351 337 6 20 12 90 14 155 5 132 -7 182 -69 284 -42 70 -95 117
-235 209 -62 40 -113 77 -113 82 0 12 357 262 373 262 17 0 104 -101 151 -174
90 -141 138 -287 167 -511 22 -177 77 -280 194 -372 113 -88 302 -133 433
-103 257 59 454 331 412 568 -27 149 -84 259 -177 342 -79 69 -174 108 -333
134 -280 47 -438 107 -566 214 -38 32 -70 67 -72 78 -2 17 29 77 158 299 9 17
40 67 69 113 28 46 51 85 51 88 0 2 15 28 34 57 87 135 181 163 377 113 244
-64 301 -82 394 -129 145 -72 301 -208 393 -344 75 -110 184 -193 301 -229 70
-21 225 -18 297 6 168 54 280 163 339 326 33 91 35 247 5 338 -41 123 -127
225 -243 290 -90 51 -148 66 -252 66 -92 0 -147 -14 -272 -70 -67 -30 -156
-59 -233 -76 -76 -16 -300 -19 -362 -4 -24 6 -99 24 -168 40 -260 63 -322 91
-368 169 l-27 46 1 211 c0 116 4 216 8 222 5 8 21 6 59 -9 102 -41 160 -52
277 -53 122 0 178 12 250 57 80 49 156 138 199 232 95 207 57 420 -103 581
-113 114 -210 154 -373 154 -160 0 -258 -44 -390 -173 -44 -43 -76 -67 -81
-62 -5 6 -60 91 -122 190 -62 99 -139 222 -171 273 -33 50 -59 98 -59 106 0
22 193 162 283 205 95 45 305 101 384 101 64 1 172 32 243 69 163 87 280 335
249 532 -29 184 -163 343 -353 419 -48 19 -76 23 -160 23 -87 0 -111 -4 -177
-30 -170 -66 -264 -163 -329 -338 -12 -30 -30 -147 -30 -189 0 -113 -87 -344
-178 -471 -43 -60 -112 -135 -124 -135 -5 0 -36 18 -68 40 -32 22 -61 40 -65
40 -3 0 -42 24 -88 54 -45 29 -136 87 -202 128 -119 75 -149 102 -130 116 18
12 111 125 138 167 15 22 38 71 52 110 34 95 36 248 4 339 -48 134 -150 254
-259 304 -30 14 -66 30 -79 36 -13 6 -78 11 -145 11 -105 0 -129 -3 -181 -24
-175 -71 -291 -200 -324 -359 -21 -101 -14 -170 36 -350 14 -51 24 -94 21 -97
-5 -5 -295 -19 -347 -16 -59 2 -80 35 -111 176 -10 44 -26 109 -36 145 -25 91
-24 369 0 455 10 33 21 74 26 91 4 17 27 73 50 125 81 175 88 293 28 449 -56
144 -181 258 -338 310 -47 15 -193 21 -254 10z m-5 -3014 c162 -49 297 -184
345 -346 21 -67 23 -228 5 -285 -55 -175 -190 -313 -350 -358 -57 -16 -220
-20 -271 -6 -177 47 -326 190 -373 356 -5 21 -12 80 -14 131 -4 76 0 106 17
160 52 163 173 289 325 340 74 25 245 29 316 8z m1844 -10 c96 -44 175 -167
175 -271 0 -108 -82 -232 -182 -275 -115 -49 -235 -30 -326 53 -69 65 -96 126
-95 222 1 95 17 138 76 202 61 67 123 93 222 93 63 0 91 -5 130 -24z m-700
-1191 c172 -44 301 -162 362 -330 25 -72 23 -250 -5 -321 -65 -170 -205 -285
-387 -319 -72 -14 -89 -14 -160 0 -113 21 -191 61 -267 136 -196 194 -197 508
-2 703 118 118 305 171 459 131z"/>
</g>
</svg>
