<?xml version="1.0" encoding="UTF-8"?>
<svg xmlns="http://www.w3.org/2000/svg" xmlns:xlink="http://www.w3.org/1999/xlink" width="22pt" height="22pt" viewBox="0 0 22 22" version="1.1">
<g id="surface1">
<path style=" stroke:none;fill-rule:nonzero;fill:rgb(0%,0%,0%);fill-opacity:1;" d="M 21.707031 6.292969 L 15.707031 0.292969 C 15.316406 -0.0976562 14.683594 -0.0976562 14.292969 0.292969 C 13.902344 0.683594 13.902344 1.316406 14.292969 1.707031 L 15.171875 2.585938 L 13.019531 4.738281 L 12.3125 4.027344 C 11.921875 3.640625 11.289062 3.640625 10.898438 4.027344 C 10.507812 4.421875 10.507812 5.054688 10.898438 5.441406 L 11.605469 6.152344 L 2.414062 15.34375 C 2.226562 15.53125 2.121094 15.785156 2.121094 16.050781 C 2.121094 16.316406 2.226562 16.570312 2.414062 16.757812 L 3.121094 17.464844 L 0.292969 20.292969 C -0.0976562 20.683594 -0.0976562 21.316406 0.292969 21.707031 C 0.488281 21.902344 0.746094 22 1 22 C 1.253906 22 1.511719 21.902344 1.707031 21.707031 L 4.535156 18.878906 L 5.242188 19.585938 C 5.4375 19.78125 5.695312 19.878906 5.949219 19.878906 C 6.207031 19.878906 6.460938 19.78125 6.65625 19.585938 L 15.851562 10.394531 L 16.554688 11.101562 C 16.75 11.296875 17.007812 11.394531 17.261719 11.394531 C 17.519531 11.394531 17.777344 11.296875 17.96875 11.101562 C 18.363281 10.710938 18.363281 10.078125 17.96875 9.6875 L 17.261719 8.980469 L 19.414062 6.828125 L 20.292969 7.707031 C 20.488281 7.902344 20.746094 8 21 8 C 21.253906 8 21.511719 7.902344 21.707031 7.707031 C 22.097656 7.316406 22.097656 6.683594 21.707031 6.292969 Z M 16.101562 7.3125 L 14.6875 5.898438 L 16.546875 4.039062 L 17.960938 5.453125 Z M 16.101562 7.3125 "/>
</g>
</svg>
